<svg xmlns="http://www.w3.org/2000/svg"><style>:root svg:not(:target){display:none}</style><svg viewBox="0 0 46 46" fill="none" id="arrow-alt"><rect width="46" height="46" rx="23" fill="#316DC2"/><g clip-path="url(#arrow-alt_0)"><path d="M17.3431 22.9996H28.6569M28.6569 22.9996L23.0375 17.3802M28.6569 22.9996L23.0375 28.619" stroke="white"/></g><defs><clipPath id="arrow-alt_0"><rect width="10" height="10" fill="white" transform="translate(23 15.9287) rotate(45)"/></clipPath></defs></svg><svg viewBox="0 0 46 46" fill="none" id="arrow-pale-alt"><rect width="46" height="46" rx="23" fill="#316DC2"/><g opacity="0.7" clip-path="url(#arrow-pale-alt_0)"><path d="M17.3431 22.9996H28.6569M28.6569 22.9996L23.0375 17.3802M28.6569 22.9996L23.0375 28.619" stroke="white"/></g><defs><clipPath id="arrow-pale-alt_0"><rect width="10" height="10" fill="white" transform="translate(23 15.9287) rotate(45)"/></clipPath></defs></svg><svg viewBox="0 0 30 30" fill="none" id="arrow-pale-secondary"><rect width="30" height="30" rx="15" fill="white"/><g opacity="0.7" clip-path="url(#arrow-pale-secondary_0)"><path d="M9.34315 14.9996H20.6569M20.6569 14.9996L15.0375 9.38024M20.6569 14.9996L15.0375 20.619" stroke="#316DC2"/></g><defs><clipPath id="arrow-pale-secondary_0"><rect width="10" height="10" fill="white" transform="translate(15 7.92871) rotate(45)"/></clipPath></defs></svg><svg viewBox="0 0 46 46" fill="none" id="arrow-pale"><rect width="46" height="46" rx="23" fill="white"/><g opacity="0.7" clip-path="url(#arrow-pale_0)"><path d="M17.3431 22.9996H28.6569M28.6569 22.9996L23.0375 17.3802M28.6569 22.9996L23.0375 28.619" stroke="#316DC2"/></g><defs><clipPath id="arrow-pale_0"><rect width="10" height="10" fill="white" transform="translate(23 15.9287) rotate(45)"/></clipPath></defs></svg><svg viewBox="0 0 22 22" fill="none" id="arrow-right-grey-navigation"><path d="M6 10.6875H16M16 10.6875L11.0331 16M16 10.6875L11.0331 6" stroke="#A9AFB7"/></svg><svg viewBox="0 0 22 22" fill="none" id="arrow-right-navigation"><path d="M6 10.6875H16M16 10.6875L11.0331 16M16 10.6875L11.0331 6" stroke="#316DC2"/></svg><svg viewBox="0 0 22 22" fill="none" id="arrow-right-pale-navigation"><rect width="22" height="22" rx="11" fill="white"/><path opacity="0.7" d="M6 10.6875H16M16 10.6875L11.0331 16M16 10.6875L11.0331 6" stroke="#316DC2"/></svg><svg viewBox="0 0 22 22" fill="none" id="arrow-right-white-bg-navigation"><rect width="22" height="22" rx="11" fill="white"/><path d="M6 10.6875H16M16 10.6875L11.0331 16M16 10.6875L11.0331 6" stroke="#316DC2"/></svg><svg viewBox="0 0 30 30" fill="none" id="arrow-secondary"><rect width="30" height="30" rx="15" fill="white"/><g clip-path="url(#arrow-secondary_0)"><path d="M9.34315 14.9996H20.6569M20.6569 14.9996L15.0375 9.38024M20.6569 14.9996L15.0375 20.619" stroke="#316DC2"/></g><defs><clipPath id="arrow-secondary_0"><rect width="10" height="10" fill="white" transform="translate(15 7.92871) rotate(45)"/></clipPath></defs></svg><svg viewBox="0 0 46 46" fill="none" id="arrow-up-alt"><rect width="46" height="46" rx="23" fill="white"/><g clip-path="url(#arrow-up-alt_0)"><path d="M19 27L27 19M27 19H19.053M27 19V26.947" stroke="#316DC2"/></g><defs><clipPath id="arrow-up-alt_0"><rect width="10" height="10" fill="white" transform="translate(18 18)"/></clipPath></defs></svg><svg viewBox="0 0 46 46" fill="none" id="arrow-up-grey-alt"><rect width="46" height="46" rx="23" fill="#A9AFB7"/><g opacity="0.6" clip-path="url(#arrow-up-grey-alt_0)"><path d="M19 27L27 19M27 19H19.053M27 19V26.947" stroke="white"/></g><defs><clipPath id="arrow-up-grey-alt_0"><rect width="10" height="10" fill="white" transform="translate(18 18)"/></clipPath></defs></svg><svg viewBox="0 0 30 30" fill="none" id="arrow-up-grey-secondary"><rect width="30" height="30" rx="15" fill="#A9AFB7"/><g opacity="0.6" clip-path="url(#arrow-up-grey-secondary_0)"><path d="M11 19L19 11M19 11H11.053M19 11V18.947" stroke="white"/></g><defs><clipPath id="arrow-up-grey-secondary_0"><rect width="10" height="10" fill="white" transform="translate(10 10)"/></clipPath></defs></svg><svg viewBox="0 0 46 46" fill="none" id="arrow-up-grey"><rect width="46" height="46" rx="23" fill="#A9AFB7"/><g opacity="0.6" clip-path="url(#arrow-up-grey_0)"><path d="M19 27L27 19M27 19H19.053M27 19V26.947" stroke="white"/></g><defs><clipPath id="arrow-up-grey_0"><rect width="10" height="10" fill="white" transform="translate(18 18)"/></clipPath></defs></svg><svg viewBox="0 0 30 30" fill="none" id="arrow-up-secondary"><rect width="30" height="30" rx="15" fill="#316DC2"/><g clip-path="url(#arrow-up-secondary_0)"><path d="M11 19L19 11M19 11H11.053M19 11V18.947" stroke="white"/></g><defs><clipPath id="arrow-up-secondary_0"><rect width="10" height="10" fill="white" transform="translate(10 10)"/></clipPath></defs></svg><svg viewBox="0 0 46 46" fill="none" id="arrow-up"><rect width="46" height="46" rx="23" fill="#316DC2"/><g clip-path="url(#arrow-up_0)"><path d="M19 27L27 19M27 19H19.053M27 19V26.947" stroke="white"/></g><defs><clipPath id="arrow-up_0"><rect width="10" height="10" fill="white" transform="translate(18 18)"/></clipPath></defs></svg><svg viewBox="0 0 46 46" fill="none" id="arrow"><rect width="46" height="46" rx="23" fill="white"/><g clip-path="url(#arrow_0)"><path d="M17.3431 22.9996H28.6569M28.6569 22.9996L23.0375 17.3802M28.6569 22.9996L23.0375 28.619" stroke="#316DC2"/></g><defs><clipPath id="arrow_0"><rect width="10" height="10" fill="white" transform="translate(23 15.9287) rotate(45)"/></clipPath></defs></svg><svg viewBox="0 0 46 46" fill="none" id="burger-active"><rect width="46" height="46" rx="23" fill="white"/><path d="M14 19H32M14 23H32M14 27H32" stroke="rgba(49, 109, 194, 0.7)" stroke-linecap="round"/></svg><svg viewBox="0 0 46 46" fill="none" id="burger-disabled"><rect width="46" height="46" rx="23" fill="#A9AFB7"/><path d="M14 19H32M14 23H32M14 27H32" stroke="#DDDFE2" stroke-linecap="round"/></svg><svg viewBox="0 0 46 46" fill="none" id="burger-hovered"><rect width="46" height="46" rx="23" fill="white"/><path d="M14 19H32M14 23H32M14 27H32" stroke="#316DC2" stroke-linecap="round"/></svg><svg viewBox="0 0 46 46" fill="none" id="burger"><rect width="46" height="46" rx="23" fill="#316DC2"/><path d="M14 19H32M14 23H32M14 27H32" stroke="white" stroke-linecap="round"/></svg><svg viewBox="0 0 46 46" fill="none" id="cross-active"><rect width="46" height="46" rx="23" fill="#316DC2"/><path d="M15 31L23 23M23 23L31 15M23 23L31 31M23 23L15 15" stroke="#C1D3ED" stroke-linecap="round" stroke-linejoin="round"/></svg><svg viewBox="0 0 46 46" fill="none" id="cross-disabled"><rect width="46" height="46" rx="23" fill="#A9AFB7"/><path d="M15 31L23 23M23 23L31 15M23 23L31 31M23 23L15 15" stroke="#DDDFE2" stroke-linecap="round" stroke-linejoin="round"/></svg><svg viewBox="0 0 46 46" fill="none" id="cross-hovered"><rect width="46" height="46" rx="23" fill="#316DC2"/><path d="M15 31L23 23M23 23L31 15M23 23L31 31M23 23L15 15" stroke="white" stroke-linecap="round" stroke-linejoin="round"/></svg><svg viewBox="0 0 46 46" fill="none" id="cross"><rect width="46" height="46" rx="23" fill="white"/><path d="M15 31L23 23M23 23L31 15M23 23L31 31M23 23L15 15" stroke="#316DC2" stroke-linecap="round" stroke-linejoin="round"/></svg><svg viewBox="0 0 10 10" fill="none" id="hero-angle-mobile"><path d="M10 0C4.47715 0 0 4.47715 0 10V0H10Z" fill="white"/></svg><svg viewBox="0 0 26 26" fill="none" id="hero-angle"><path d="M26 0C11.6406 0 0 11.6406 0 26V0H26Z" fill="white"/></svg><svg viewBox="0 0 20 20" fill="none" id="hero-top-angle"><path d="M20 20C8.95431 20 0 11.0457 0 0V20H20Z" fill="white"/></svg><svg viewBox="0 0 40 40" fill="none" id="minus-blue-white-round"><rect width="40" height="40" rx="20" fill="white"/><path d="M11 20H20H29" stroke="#316DC2"/></svg><svg viewBox="0 0 40 40" fill="none" id="minus-white-white-border"><path d="M11 20H20H29" stroke="white"/><rect x="0.5" y="0.5" width="39" height="39" rx="19.5" stroke="white"/></svg><svg viewBox="0 0 40 40" fill="none" id="minus-white-white-round"><rect width="40" height="40" rx="20" fill="white"/><path d="M11 20H20H29" stroke="#275699"/></svg><svg viewBox="0 0 40 40" fill="none" id="plus-blue-blue-border"><path d="M20 11V20M20 20V29M20 20H11M20 20H29" stroke="#316DC2"/><rect x="0.5" y="0.5" width="39" height="39" rx="19.5" stroke="#316DC2"/></svg><svg viewBox="0 0 40 40" fill="none" id="plus-white-blue-round"><rect width="40" height="40" rx="20" fill="#316DC2"/><path d="M20 11V20M20 20V29M20 20H11M20 20H29" stroke="white"/></svg><svg viewBox="0 0 40 40" fill="none" id="plus-white-dark-blue-round"><rect width="40" height="40" rx="20" fill="#275699"/><path d="M20 11V20M20 20V29M20 20H11M20 20H29" stroke="white"/></svg><svg viewBox="0 0 40 40" fill="none" id="plus-white-grey-grey-round"><rect width="40" height="40" rx="20" fill="#A9AFB7"/><g opacity="0.6"><path d="M20 11V20M20 20V29M20 20H11M20 20H29" stroke="white"/></g></svg><svg viewBox="0 0 18 18" fill="none" id="programms-angle-top"><path d="M18 18C8.05888 18 0 9.94112 0 0V18H18Z" fill="white"/></svg><svg viewBox="0 0 10 10" fill="none" id="slider-pagination-bullet-active"><circle cx="5" cy="5" r="5" fill="#316DC2"/></svg><svg viewBox="0 0 10 10" fill="none" id="slider-pagination-bullet-hover"><circle cx="5" cy="5" r="4.5" stroke="#316DC2"/></svg><svg viewBox="0 0 10 10" fill="none" id="slider-pagination-bullet"><circle cx="5" cy="5" r="4.5" stroke="#316DC2"/></svg><svg viewBox="0 0 36 36" fill="none" id="socials-ok-no-bg"><path d="M17.9997 12.4203C18.9619 12.4203 19.7443 13.1874 19.7443 14.1305C19.7443 15.0708 18.9619 15.8378 17.9997 15.8378C17.0376 15.8378 16.2552 15.0708 16.2552 14.1305C16.2552 13.1874 17.0376 12.4203 17.9997 12.4203ZM17.9997 18.2582C20.3239 18.2582 22.2134 16.406 22.2134 14.1305C22.2134 11.8522 20.3239 10 17.9997 10C15.6756 10 13.789 11.8522 13.789 14.1305C13.789 16.406 15.6756 18.2582 17.9997 18.2582ZM19.7037 21.6273C20.5615 21.4342 21.3875 21.1018 22.1496 20.6331C22.7263 20.278 22.9002 19.5308 22.5379 18.9655C22.1728 18.3974 21.4135 18.2269 20.8339 18.5848C19.1097 19.6473 16.8898 19.6473 15.1626 18.5848C14.5859 18.2269 13.8238 18.3974 13.4615 18.9655C13.0993 19.5308 13.2732 20.278 13.8499 20.6331C14.612 21.1018 15.4379 21.4342 16.2957 21.6273L13.9397 23.934C13.4586 24.4056 13.4586 25.1726 13.9397 25.6442C14.1831 25.88 14.4961 25.9993 14.812 25.9993C15.1279 25.9993 15.4437 25.88 15.6872 25.6442L17.9997 23.3772L20.3152 25.6442C20.7963 26.1186 21.5758 26.1186 22.0598 25.6442C22.5408 25.1726 22.5408 24.4056 22.0598 23.934L19.7037 21.6273Z" fill="white"/></svg><svg viewBox="0 0 36 36" fill="none" id="socials-ok"><circle cx="18" cy="18" r="18" fill="#316DC2"/><path d="M17.9997 12.4203C18.9619 12.4203 19.7443 13.1874 19.7443 14.1305C19.7443 15.0708 18.9619 15.8378 17.9997 15.8378C17.0376 15.8378 16.2552 15.0708 16.2552 14.1305C16.2552 13.1874 17.0376 12.4203 17.9997 12.4203ZM17.9997 18.2582C20.3239 18.2582 22.2134 16.406 22.2134 14.1305C22.2134 11.8522 20.3239 10 17.9997 10C15.6756 10 13.789 11.8522 13.789 14.1305C13.789 16.406 15.6756 18.2582 17.9997 18.2582ZM19.7037 21.6273C20.5615 21.4342 21.3875 21.1018 22.1496 20.6331C22.7263 20.278 22.9002 19.5308 22.5379 18.9655C22.1728 18.3974 21.4135 18.2269 20.8339 18.5848C19.1097 19.6473 16.8898 19.6473 15.1626 18.5848C14.5859 18.2269 13.8238 18.3974 13.4615 18.9655C13.0993 19.5308 13.2732 20.278 13.8499 20.6331C14.612 21.1018 15.4379 21.4342 16.2957 21.6273L13.9397 23.934C13.4586 24.4056 13.4586 25.1726 13.9397 25.6442C14.1831 25.88 14.4961 25.9993 14.812 25.9993C15.1279 25.9993 15.4437 25.88 15.6872 25.6442L17.9997 23.3772L20.3152 25.6442C20.7963 26.1186 21.5758 26.1186 22.0598 25.6442C22.5408 25.1726 22.5408 24.4056 22.0598 23.934L19.7037 21.6273Z" fill="white"/></svg><svg viewBox="0 0 36 36" fill="none" id="socials-reddit-no-bg"><path d="M19.415 10.3635C18.9486 10.3635 18.5109 10.612 18.2302 10.9703C17.9494 11.3285 17.7947 11.7653 17.6819 12.2255C17.5029 12.9656 17.4476 13.7868 17.4344 14.5269C16.1235 14.6184 14.9364 15.0264 13.9505 15.6567C13.5504 15.3036 13.0685 15.1075 12.6065 15.1127C12.0804 15.1179 11.5808 15.3559 11.2094 15.845C10.4998 16.7786 10.5816 18.3059 11.4039 19.2133C11.3531 19.4932 11.3155 19.7808 11.3155 20.0711C11.3155 23.1466 14.3086 25.6363 18.0003 25.6363C21.6919 25.6363 24.685 23.144 24.685 20.0711C24.685 19.7808 24.6474 19.4932 24.5966 19.2133C25.4189 18.3059 25.5007 16.7786 24.7911 15.845C24.4197 15.3559 23.9202 15.1179 23.394 15.1127C22.932 15.1075 22.4501 15.3036 22.05 15.6567C21.0685 15.029 19.8881 14.6211 18.5839 14.5269C18.6015 13.8443 18.648 13.1356 18.7784 12.6021C18.8602 12.2674 18.9574 12.0242 19.0613 11.8908C19.1652 11.7574 19.2404 11.7025 19.415 11.7025C19.793 11.7025 19.8417 11.8306 20.0694 12.1419C20.1843 12.2988 20.3169 12.4949 20.5292 12.6858C20.7414 12.8767 21.0553 13.0415 21.3957 13.0415V11.7025C21.3006 11.7025 21.283 11.6999 21.2188 11.6397C21.1547 11.5796 21.0663 11.441 20.9359 11.2632C20.675 10.9049 20.1688 10.3635 19.415 10.3635ZM23.0934 10.4891C22.2136 10.4891 21.5018 11.3311 21.5018 12.372C21.5018 13.4128 22.2136 14.2549 23.0934 14.2549C23.9732 14.2549 24.685 13.4128 24.685 12.372C24.685 11.3311 23.9732 10.4891 23.0934 10.4891ZM23.0934 11.1585C23.6593 11.1585 24.1191 11.7025 24.1191 12.372C24.1191 13.0415 23.6593 13.5854 23.0934 13.5854C22.5275 13.5854 22.0677 13.0415 22.0677 12.372C22.0677 11.7025 22.5275 11.1585 23.0934 11.1585ZM18.0003 15.573C21.1326 15.573 23.7831 17.6364 23.7831 20.0711C23.7831 22.5085 21.1326 24.5693 18.0003 24.5693C14.8679 24.5693 12.2174 22.5085 12.2174 20.0711C12.2174 17.6364 14.8679 15.573 18.0003 15.573ZM12.6242 16.1797C12.7811 16.1823 12.9447 16.2242 13.1017 16.3052C12.5335 16.8152 12.0826 17.401 11.7753 18.0627C11.5631 17.5448 11.6206 16.8989 11.8814 16.5563C12.0715 16.3052 12.3346 16.1771 12.6242 16.1797ZM23.3764 16.1797C23.6659 16.1771 23.929 16.3052 24.1191 16.5563C24.38 16.8989 24.4374 17.5448 24.2252 18.0627C23.9179 17.401 23.467 16.8152 22.8989 16.3052C23.0558 16.2242 23.2194 16.1823 23.3764 16.1797ZM15.7366 17.8534C15.1707 17.8534 14.7109 18.3974 14.7109 19.0669C14.7109 19.7364 15.1707 20.2803 15.7366 20.2803C16.3026 20.2803 16.7624 19.7364 16.7624 19.0669C16.7624 18.3974 16.3026 17.8534 15.7366 17.8534ZM20.2639 17.8534C19.698 17.8534 19.2382 18.3974 19.2382 19.0669C19.2382 19.7364 19.698 20.2803 20.2639 20.2803C20.8298 20.2803 21.2896 19.7364 21.2896 19.0669C21.2896 18.3974 20.8298 17.8534 20.2639 17.8534ZM15.1884 21.975C15.5488 22.8563 16.6629 23.7115 18.0003 23.7115C19.3377 23.7115 20.4695 22.8563 20.8298 21.975C20.1755 22.4745 19.1431 22.8118 18.0003 22.8118C16.8574 22.8118 15.8428 22.4745 15.1884 21.975Z" fill="white"/></svg><svg viewBox="0 0 36 36" fill="none" id="socials-reddit"><circle cx="18" cy="18" r="18" fill="#316DC2"/><path d="M19.415 10.3635C18.9486 10.3635 18.5109 10.612 18.2302 10.9703C17.9494 11.3285 17.7947 11.7653 17.6819 12.2255C17.5029 12.9656 17.4476 13.7868 17.4344 14.5269C16.1235 14.6184 14.9364 15.0264 13.9505 15.6567C13.5504 15.3036 13.0685 15.1075 12.6065 15.1127C12.0804 15.1179 11.5808 15.3559 11.2094 15.845C10.4998 16.7786 10.5816 18.3059 11.4039 19.2133C11.3531 19.4932 11.3155 19.7808 11.3155 20.0711C11.3155 23.1466 14.3086 25.6363 18.0003 25.6363C21.6919 25.6363 24.685 23.144 24.685 20.0711C24.685 19.7808 24.6474 19.4932 24.5966 19.2133C25.4189 18.3059 25.5007 16.7786 24.7911 15.845C24.4197 15.3559 23.9202 15.1179 23.394 15.1127C22.932 15.1075 22.4501 15.3036 22.05 15.6567C21.0685 15.029 19.8881 14.6211 18.5839 14.5269C18.6015 13.8443 18.648 13.1356 18.7784 12.6021C18.8602 12.2674 18.9574 12.0242 19.0613 11.8908C19.1652 11.7574 19.2404 11.7025 19.415 11.7025C19.793 11.7025 19.8417 11.8306 20.0694 12.1419C20.1843 12.2988 20.3169 12.4949 20.5292 12.6858C20.7414 12.8767 21.0553 13.0415 21.3957 13.0415V11.7025C21.3006 11.7025 21.283 11.6999 21.2188 11.6397C21.1547 11.5796 21.0663 11.441 20.9359 11.2632C20.675 10.9049 20.1688 10.3635 19.415 10.3635ZM23.0934 10.4891C22.2136 10.4891 21.5018 11.3311 21.5018 12.372C21.5018 13.4128 22.2136 14.2549 23.0934 14.2549C23.9732 14.2549 24.685 13.4128 24.685 12.372C24.685 11.3311 23.9732 10.4891 23.0934 10.4891ZM23.0934 11.1585C23.6593 11.1585 24.1191 11.7025 24.1191 12.372C24.1191 13.0415 23.6593 13.5854 23.0934 13.5854C22.5275 13.5854 22.0677 13.0415 22.0677 12.372C22.0677 11.7025 22.5275 11.1585 23.0934 11.1585ZM18.0003 15.573C21.1326 15.573 23.7831 17.6364 23.7831 20.0711C23.7831 22.5085 21.1326 24.5693 18.0003 24.5693C14.8679 24.5693 12.2174 22.5085 12.2174 20.0711C12.2174 17.6364 14.8679 15.573 18.0003 15.573ZM12.6242 16.1797C12.7811 16.1823 12.9447 16.2242 13.1017 16.3052C12.5335 16.8152 12.0826 17.401 11.7753 18.0627C11.5631 17.5448 11.6206 16.8989 11.8814 16.5563C12.0715 16.3052 12.3346 16.1771 12.6242 16.1797ZM23.3764 16.1797C23.6659 16.1771 23.929 16.3052 24.1191 16.5563C24.38 16.8989 24.4374 17.5448 24.2252 18.0627C23.9179 17.401 23.467 16.8152 22.8989 16.3052C23.0558 16.2242 23.2194 16.1823 23.3764 16.1797ZM15.7366 17.8534C15.1707 17.8534 14.7109 18.3974 14.7109 19.0669C14.7109 19.7364 15.1707 20.2803 15.7366 20.2803C16.3026 20.2803 16.7624 19.7364 16.7624 19.0669C16.7624 18.3974 16.3026 17.8534 15.7366 17.8534ZM20.2639 17.8534C19.698 17.8534 19.2382 18.3974 19.2382 19.0669C19.2382 19.7364 19.698 20.2803 20.2639 20.2803C20.8298 20.2803 21.2896 19.7364 21.2896 19.0669C21.2896 18.3974 20.8298 17.8534 20.2639 17.8534ZM15.1884 21.975C15.5488 22.8563 16.6629 23.7115 18.0003 23.7115C19.3377 23.7115 20.4695 22.8563 20.8298 21.975C20.1755 22.4745 19.1431 22.8118 18.0003 22.8118C16.8574 22.8118 15.8428 22.4745 15.1884 21.975Z" fill="white"/></svg><svg viewBox="0 0 36 36" id="socials-vk-no-bg"><path d="M25.8574 21.4207C25.8144 21.3518 25.5484 20.7992 24.2683 19.6634C22.9282 18.4741 23.1082 18.6673 24.7223 16.6108C25.7054 15.3584 26.0984 14.5936 25.9754 14.2666C25.8584 13.9549 25.1353 14.0371 25.1353 14.0371L22.7312 14.0505C22.7312 14.0505 22.5531 14.0276 22.4201 14.1031C22.2911 14.1777 22.2081 14.3498 22.2081 14.3498C22.2081 14.3498 21.8271 15.3192 21.3191 16.1433C20.248 17.8823 19.8189 17.9741 19.6439 17.8661C19.2369 17.6146 19.3389 16.8546 19.3389 16.3154C19.3389 14.6299 19.6059 13.9272 18.8179 13.7455C18.5559 13.6853 18.3638 13.6452 17.6948 13.6385C16.8367 13.6299 16.1097 13.6413 15.6986 13.8335C15.4246 13.9616 15.2136 14.2475 15.3426 14.2637C15.5016 14.2838 15.8617 14.3565 16.0527 14.605C16.2997 14.9253 16.2907 15.6462 16.2907 15.6462C16.2907 15.6462 16.4327 17.6299 15.9597 17.8766C15.6346 18.0458 15.1896 17.7007 14.2345 16.1223C13.7455 15.3144 13.3755 14.4205 13.3755 14.4205C13.3755 14.4205 13.3045 14.2542 13.1775 14.1652C13.0234 14.0572 12.8074 14.0228 12.8074 14.0228L10.5213 14.0362C10.5213 14.0362 10.1782 14.0457 10.0522 14.1882C9.94022 14.3153 10.0432 14.5773 10.0432 14.5773C10.0432 14.5773 11.8334 18.5802 13.8595 20.5985C15.7186 22.4484 17.8288 22.327 17.8288 22.327H18.7849C18.7849 22.327 19.0739 22.2964 19.2209 22.1444C19.3569 22.0048 19.3519 21.7428 19.3519 21.7428C19.3519 21.7428 19.3329 20.5162 19.929 20.3355C20.516 20.1577 21.2701 21.521 22.0691 22.0459C22.6732 22.4427 23.1322 22.3557 23.1322 22.3557L25.2693 22.327C25.2693 22.327 26.3874 22.261 25.8574 21.4207Z"/></svg><svg viewBox="0 0 36 36" fill="none" id="socials-vk"><circle cx="18" cy="18" r="18" fill="var(--icon-bg-fill)"/><path d="M25.8574 21.4207C25.8144 21.3518 25.5484 20.7992 24.2683 19.6634C22.9282 18.4741 23.1082 18.6673 24.7223 16.6108C25.7054 15.3584 26.0984 14.5936 25.9754 14.2666C25.8584 13.9549 25.1353 14.0371 25.1353 14.0371L22.7312 14.0505C22.7312 14.0505 22.5531 14.0276 22.4201 14.1031C22.2911 14.1777 22.2081 14.3498 22.2081 14.3498C22.2081 14.3498 21.8271 15.3192 21.3191 16.1433C20.248 17.8823 19.8189 17.9741 19.6439 17.8661C19.2369 17.6146 19.3389 16.8546 19.3389 16.3154C19.3389 14.6299 19.6059 13.9272 18.8179 13.7455C18.5559 13.6853 18.3638 13.6452 17.6948 13.6385C16.8367 13.6299 16.1097 13.6413 15.6986 13.8335C15.4246 13.9616 15.2136 14.2475 15.3426 14.2637C15.5016 14.2838 15.8617 14.3565 16.0527 14.605C16.2997 14.9253 16.2907 15.6462 16.2907 15.6462C16.2907 15.6462 16.4327 17.6299 15.9597 17.8766C15.6346 18.0458 15.1896 17.7007 14.2345 16.1223C13.7455 15.3144 13.3755 14.4205 13.3755 14.4205C13.3755 14.4205 13.3045 14.2542 13.1775 14.1652C13.0234 14.0572 12.8074 14.0228 12.8074 14.0228L10.5213 14.0362C10.5213 14.0362 10.1782 14.0457 10.0522 14.1882C9.94022 14.3153 10.0432 14.5773 10.0432 14.5773C10.0432 14.5773 11.8334 18.5802 13.8595 20.5985C15.7186 22.4484 17.8288 22.327 17.8288 22.327H18.7849C18.7849 22.327 19.0739 22.2964 19.2209 22.1444C19.3569 22.0048 19.3519 21.7428 19.3519 21.7428C19.3519 21.7428 19.3329 20.5162 19.929 20.3355C20.516 20.1577 21.2701 21.521 22.0691 22.0459C22.6732 22.4427 23.1322 22.3557 23.1322 22.3557L25.2693 22.327C25.2693 22.327 26.3874 22.261 25.8574 21.4207Z" fill="var(--icon-fill)"/></svg><svg viewBox="0 0 22 22" fill="none" id="vk"><path d="M21.8039 15.7032C21.7448 15.6086 21.379 14.8488 19.6189 13.2871C17.7762 11.6518 18.0238 11.9173 20.2432 9.0897C21.5949 7.36763 22.1353 6.31598 21.9662 5.86641C21.8053 5.43786 20.8111 5.55091 20.8111 5.55091L17.5053 5.56932C17.5053 5.56932 17.2606 5.53777 17.0777 5.64162C16.9003 5.74415 16.7862 5.98077 16.7862 5.98077C16.7862 5.98077 16.2623 7.31373 15.5637 8.44688C14.091 10.8381 13.501 10.9643 13.2604 10.8157C12.7007 10.47 12.841 9.42491 12.841 8.6835C12.841 6.36594 13.2082 5.39974 12.1246 5.14997C11.7643 5.06715 11.5003 5.01194 10.5803 5.00274C9.4005 4.99091 8.4008 5.00668 7.83563 5.27091C7.45885 5.44706 7.16871 5.84011 7.3461 5.86246C7.56474 5.89007 8.05977 5.98997 8.32242 6.33176C8.66207 6.77214 8.64969 7.76331 8.64969 7.76331C8.64969 7.76331 8.84496 10.491 8.19453 10.8302C7.74763 11.0629 7.13571 10.5883 5.82248 8.41796C5.15006 7.30716 4.64127 6.07805 4.64127 6.07805C4.64127 6.07805 4.54364 5.84932 4.369 5.72706C4.15724 5.57852 3.86022 5.53119 3.86022 5.53119L0.716735 5.5496C0.716735 5.5496 0.245075 5.56274 0.0718122 5.75861C-0.0821991 5.93345 0.0594363 6.29364 0.0594363 6.29364C0.0594363 6.29364 2.52087 11.7977 5.30682 14.5727C7.86313 17.1164 10.7646 16.9494 10.7646 16.9494H12.0792C12.0792 16.9494 12.4766 16.9074 12.6787 16.6984C12.8658 16.5064 12.8589 16.1463 12.8589 16.1463C12.8589 16.1463 12.8327 14.4597 13.6523 14.2112C14.4595 13.9667 15.4963 15.8413 16.595 16.563C17.4256 17.1085 18.0568 16.9889 18.0568 16.9889L20.9953 16.9494C20.9953 16.9494 22.5327 16.8587 21.8039 15.7032Z" fill="currentColor"/></svg><svg viewBox="0 0 42 42" fill="none" id="white-star-blue-round"><rect width="42" height="42" rx="21" fill="#316DC2"/><path d="M21 10L24.0138 15.4748L30 15.5L27.0275 21L30 26.5L24.0138 26.5252L21 32L17.9862 26.5252L12 26.5L14.9725 21L12 15.5L17.9862 15.4748L21 10Z" fill="white"/></svg></svg>